<svg width="91" height="32" viewBox="0 0 91 32" fill="none" xmlns="http://www.w3.org/2000/svg">
<path d="M15.408 21.264C15.408 21.712 15.512 22.024 15.72 22.2C15.944 22.376 16.312 22.464 16.824 22.464C16.824 22.752 16.776 23.032 16.68 23.304C16.584 23.576 16.456 23.808 16.296 24H10.464C10.304 23.808 10.176 23.576 10.08 23.304C9.984 23.032 9.936 22.752 9.936 22.464C10.464 22.464 10.832 22.376 11.04 22.2C11.264 22.024 11.376 21.712 11.376 21.264V16.488H6.096V21.264C6.096 21.712 6.2 22.024 6.408 22.2C6.632 22.376 7.008 22.464 7.536 22.464C7.536 22.752 7.488 23.032 7.392 23.304C7.296 23.576 7.168 23.808 7.008 24H1.152C0.992 23.808 0.864 23.576 0.768 23.304C0.672 23.032 0.624 22.752 0.624 22.464C1.152 22.464 1.52 22.376 1.728 22.2C1.952 22.024 2.064 21.712 2.064 21.264V9.984C2.064 9.536 1.952 9.224 1.728 9.048C1.52 8.856 1.152 8.76 0.624 8.76C0.624 8.488 0.672 8.216 0.768 7.944C0.864 7.672 0.992 7.44 1.152 7.248H7.008C7.168 7.44 7.296 7.672 7.392 7.944C7.488 8.216 7.536 8.488 7.536 8.76C7.008 8.76 6.632 8.856 6.408 9.048C6.2 9.224 6.096 9.536 6.096 9.984V14.472H11.376V9.984C11.376 9.536 11.264 9.224 11.04 9.048C10.816 8.856 10.448 8.76 9.936 8.76C9.936 8.488 9.984 8.216 10.08 7.944C10.176 7.672 10.304 7.44 10.464 7.248H16.296C16.456 7.44 16.584 7.672 16.68 7.944C16.776 8.216 16.824 8.488 16.824 8.76C16.312 8.76 15.944 8.856 15.72 9.048C15.512 9.224 15.408 9.536 15.408 9.984V21.264ZM18.6615 24C18.5015 23.808 18.3735 23.576 18.2775 23.304C18.1815 23.032 18.1335 22.752 18.1335 22.464C18.6615 22.464 19.0295 22.376 19.2375 22.2C19.4615 22.024 19.5735 21.712 19.5735 21.264V9.984C19.5735 9.536 19.4615 9.224 19.2375 9.048C19.0295 8.856 18.6615 8.76 18.1335 8.76C18.1335 8.488 18.1815 8.216 18.2775 7.944C18.3735 7.672 18.5015 7.44 18.6615 7.248H24.4935C24.6535 7.44 24.7815 7.672 24.8775 7.944C24.9735 8.216 25.0215 8.488 25.0215 8.76C24.4935 8.76 24.1175 8.856 23.8935 9.048C23.6855 9.224 23.5815 9.536 23.5815 9.984V21.264C23.5815 21.712 23.6855 22.024 23.8935 22.2C24.1175 22.376 24.4935 22.464 25.0215 22.464C25.0215 22.752 24.9735 23.032 24.8775 23.304C24.7815 23.576 24.6535 23.808 24.4935 24H18.6615ZM38.1636 18.096C38.4196 19.44 38.9236 20.504 39.6756 21.288C40.4276 22.056 41.3156 22.44 42.3396 22.44C43.0116 22.44 43.5076 22.248 43.8276 21.864C44.1476 21.48 44.3076 21.056 44.3076 20.592C44.3076 19.904 44.0036 19.328 43.3956 18.864C42.8036 18.384 41.9476 17.872 40.8276 17.328C39.3236 16.592 38.1876 15.776 37.4196 14.88C36.6516 13.984 36.2676 12.896 36.2676 11.616C36.2676 10.672 36.4996 9.856 36.9636 9.168C37.4436 8.464 38.0916 7.928 38.9076 7.56C39.7236 7.192 40.6356 7.008 41.6436 7.008C42.1716 7.008 42.7396 7.064 43.3476 7.176C43.9716 7.272 44.4676 7.424 44.8356 7.632L46.8756 7.008C47.1636 7.504 47.3476 8.192 47.4276 9.072C47.5076 9.936 47.5476 10.936 47.5476 12.072V12.432H45.5556C44.9796 10.096 43.8516 8.928 42.1716 8.928C41.5316 8.928 41.0516 9.112 40.7316 9.48C40.4116 9.832 40.2516 10.304 40.2516 10.896C40.2516 11.376 40.3796 11.792 40.6356 12.144C40.8916 12.496 41.2116 12.8 41.5956 13.056C41.9956 13.296 42.5236 13.576 43.1796 13.896C44.1876 14.392 45.0276 14.856 45.6996 15.288C46.3876 15.72 46.9796 16.296 47.4756 17.016C47.9716 17.72 48.2196 18.56 48.2196 19.536C48.2196 20.432 47.9956 21.248 47.5476 21.984C47.0996 22.704 46.4436 23.28 45.5796 23.712C44.7316 24.144 43.7396 24.36 42.6036 24.36C41.3076 24.36 40.0196 24.088 38.7396 23.544L36.8916 24.36C36.5876 23.752 36.3236 22.808 36.0996 21.528C35.8756 20.232 35.7636 19.088 35.7636 18.096H38.1636ZM61.5101 18.408C61.5421 18.456 61.7981 18.864 62.2781 19.632C62.8541 20.56 63.3181 21.224 63.6701 21.624C64.0381 22.008 64.4861 22.232 65.0141 22.296V23.256C64.7421 23.624 64.4221 23.896 64.0541 24.072C63.6861 24.248 63.1981 24.336 62.5901 24.336C61.7581 24.336 61.0701 24.16 60.5261 23.808C59.9981 23.456 59.6061 23.08 59.3501 22.68C59.1101 22.28 58.7821 21.664 58.3661 20.832C57.7901 19.68 57.2461 18.704 56.7341 17.904C56.2381 17.104 55.7261 16.592 55.1981 16.368V21.264C55.1981 21.712 55.3021 22.024 55.5101 22.2C55.7341 22.376 56.1101 22.464 56.6381 22.464C56.6381 22.752 56.5901 23.032 56.4941 23.304C56.3981 23.576 56.2701 23.808 56.1101 24H50.2301C50.0701 23.808 49.9421 23.576 49.8461 23.304C49.7501 23.032 49.7021 22.752 49.7021 22.464C50.2301 22.464 50.5981 22.376 50.8061 22.2C51.0301 22.024 51.1421 21.712 51.1421 21.264V9.984C51.1421 9.536 51.0301 9.224 50.8061 9.048C50.5981 8.856 50.2301 8.76 49.7021 8.76C49.7021 8.488 49.7501 8.216 49.8461 7.944C49.9421 7.672 50.0701 7.44 50.2301 7.248H56.1101C56.2701 7.44 56.3981 7.672 56.4941 7.944C56.5901 8.216 56.6381 8.488 56.6381 8.76C56.1101 8.76 55.7341 8.856 55.5101 9.048C55.3021 9.224 55.1981 9.536 55.1981 9.984V14.736C55.5661 14.736 55.8621 14.752 56.0861 14.784L59.4701 10.296C59.6781 10.04 59.7821 9.752 59.7821 9.432C59.7821 9.24 59.6301 9.08 59.3261 8.952C59.0381 8.824 58.7261 8.76 58.3901 8.76C58.3901 8.504 58.4381 8.24 58.5341 7.968C58.6301 7.696 58.7661 7.456 58.9421 7.248H64.5341C64.6941 7.456 64.8221 7.696 64.9181 7.968C65.0141 8.24 65.0621 8.504 65.0621 8.76C64.0541 8.76 63.2541 9.144 62.6621 9.912L58.1261 15.288C58.8621 15.624 59.4781 16.032 59.9741 16.512C60.4861 16.992 60.9981 17.624 61.5101 18.408ZM66.2631 24C66.1031 23.808 65.9751 23.576 65.8791 23.304C65.7831 23.032 65.7351 22.752 65.7351 22.464C66.2631 22.464 66.6311 22.376 66.8391 22.2C67.0631 22.024 67.1751 21.712 67.1751 21.264V9.984C67.1751 9.536 67.0631 9.224 66.8391 9.048C66.6311 8.856 66.2631 8.76 65.7351 8.76C65.7351 8.488 65.7831 8.216 65.8791 7.944C65.9751 7.672 66.1031 7.44 66.2631 7.248H72.0951C72.2551 7.44 72.3831 7.672 72.4791 7.944C72.5751 8.216 72.6231 8.488 72.6231 8.76C72.0951 8.76 71.7191 8.856 71.4951 9.048C71.2871 9.224 71.1831 9.536 71.1831 9.984V21.264C71.1831 21.712 71.2871 22.024 71.4951 22.2C71.7191 22.376 72.0951 22.464 72.6231 22.464C72.6231 22.752 72.5751 23.032 72.4791 23.304C72.3831 23.576 72.2551 23.808 72.0951 24H66.2631ZM78.3525 21.264C78.3525 22.08 78.9365 22.488 80.1045 22.488C80.1045 23.048 79.9205 23.552 79.5525 24H74.5605C74.2085 23.568 74.0325 23.064 74.0325 22.488C74.5925 22.488 75.0085 22.392 75.2805 22.2C75.5525 22.008 75.6885 21.696 75.6885 21.264V9.984C75.6885 9.168 75.1045 8.76 73.9365 8.76C73.9365 8.488 73.9845 8.216 74.0805 7.944C74.1765 7.672 74.3045 7.44 74.4645 7.248H77.8005C78.2645 7.248 78.7285 7.432 79.1925 7.8C79.6565 8.152 80.0965 8.648 80.5125 9.288L85.9605 17.904V9.984C85.9605 9.552 85.8165 9.24 85.5285 9.048C85.2405 8.856 84.8165 8.76 84.2565 8.76C84.2565 8.472 84.3045 8.2 84.4005 7.944C84.4965 7.672 84.6325 7.44 84.8085 7.248H89.9205C90.0965 7.44 90.2325 7.672 90.3285 7.944C90.4245 8.216 90.4725 8.488 90.4725 8.76C89.9285 8.76 89.5125 8.856 89.2245 9.048C88.9525 9.24 88.8165 9.552 88.8165 9.984V24.144H87.8565C87.0725 24.144 86.4965 24.048 86.1285 23.856C85.7605 23.648 85.4085 23.296 85.0725 22.8L78.3525 12.6V21.264Z" fill="black"/>
<circle cx="30" cy="16" r="3" fill="black"/>
</svg>
