<svg width="140" height="50" viewBox="0 0 140 50" fill="none" xmlns="http://www.w3.org/2000/svg">
<path d="M23.7046 33.7908C23.7046 34.48 23.8646 34.96 24.1846 35.2308C24.5292 35.5015 25.0954 35.6369 25.8831 35.6369C25.8831 36.08 25.8092 36.5108 25.6615 36.9292C25.5138 37.3477 25.3169 37.7046 25.0708 38H16.0985C15.8523 37.7046 15.6554 37.3477 15.5077 36.9292C15.36 36.5108 15.2862 36.08 15.2862 35.6369C16.0985 35.6369 16.6646 35.5015 16.9846 35.2308C17.3292 34.96 17.5015 34.48 17.5015 33.7908V26.4431H9.37846V33.7908C9.37846 34.48 9.53846 34.96 9.85846 35.2308C10.2031 35.5015 10.7815 35.6369 11.5938 35.6369C11.5938 36.08 11.52 36.5108 11.3723 36.9292C11.2246 37.3477 11.0277 37.7046 10.7815 38H1.77231C1.52615 37.7046 1.32923 37.3477 1.18154 36.9292C1.03385 36.5108 0.96 36.08 0.96 35.6369C1.77231 35.6369 2.33846 35.5015 2.65846 35.2308C3.00308 34.96 3.17538 34.48 3.17538 33.7908V16.4369C3.17538 15.7477 3.00308 15.2677 2.65846 14.9969C2.33846 14.7015 1.77231 14.5538 0.96 14.5538C0.96 14.1354 1.03385 13.7169 1.18154 13.2985C1.32923 12.88 1.52615 12.5231 1.77231 12.2277H10.7815C11.0277 12.5231 11.2246 12.88 11.3723 13.2985C11.52 13.7169 11.5938 14.1354 11.5938 14.5538C10.7815 14.5538 10.2031 14.7015 9.85846 14.9969C9.53846 15.2677 9.37846 15.7477 9.37846 16.4369V23.3415H17.5015V16.4369C17.5015 15.7477 17.3292 15.2677 16.9846 14.9969C16.64 14.7015 16.0738 14.5538 15.2862 14.5538C15.2862 14.1354 15.36 13.7169 15.5077 13.2985C15.6554 12.88 15.8523 12.5231 16.0985 12.2277H25.0708C25.3169 12.5231 25.5138 12.88 25.6615 13.2985C25.8092 13.7169 25.8831 14.1354 25.8831 14.5538C25.0954 14.5538 24.5292 14.7015 24.1846 14.9969C23.8646 15.2677 23.7046 15.7477 23.7046 16.4369V33.7908ZM28.71 38C28.4638 37.7046 28.2669 37.3477 28.1192 36.9292C27.9715 36.5108 27.8977 36.08 27.8977 35.6369C28.71 35.6369 29.2762 35.5015 29.5962 35.2308C29.9408 34.96 30.1131 34.48 30.1131 33.7908V16.4369C30.1131 15.7477 29.9408 15.2677 29.5962 14.9969C29.2762 14.7015 28.71 14.5538 27.8977 14.5538C27.8977 14.1354 27.9715 13.7169 28.1192 13.2985C28.2669 12.88 28.4638 12.5231 28.71 12.2277H37.6823C37.9285 12.5231 38.1254 12.88 38.2731 13.2985C38.4208 13.7169 38.4946 14.1354 38.4946 14.5538C37.6823 14.5538 37.1038 14.7015 36.7592 14.9969C36.4392 15.2677 36.2792 15.7477 36.2792 16.4369V33.7908C36.2792 34.48 36.4392 34.96 36.7592 35.2308C37.1038 35.5015 37.6823 35.6369 38.4946 35.6369C38.4946 36.08 38.4208 36.5108 38.2731 36.9292C38.1254 37.3477 37.9285 37.7046 37.6823 38H28.71ZM58.7132 28.9169C59.107 30.9846 59.8824 32.6215 61.0393 33.8277C62.1963 35.0092 63.5624 35.6 65.1378 35.6C66.1716 35.6 66.9347 35.3046 67.427 34.7138C67.9193 34.1231 68.1655 33.4708 68.1655 32.7569C68.1655 31.6985 67.6978 30.8123 66.7624 30.0985C65.8516 29.36 64.5347 28.5723 62.8116 27.7354C60.4978 26.6031 58.7501 25.3477 57.5686 23.9692C56.387 22.5908 55.7963 20.9169 55.7963 18.9477C55.7963 17.4954 56.1532 16.24 56.867 15.1815C57.6055 14.0985 58.6024 13.2738 59.8578 12.7077C61.1132 12.1415 62.5163 11.8585 64.067 11.8585C64.8793 11.8585 65.7532 11.9446 66.6886 12.1169C67.6486 12.2646 68.4116 12.4985 68.9778 12.8185L72.1163 11.8585C72.5593 12.6215 72.8424 13.68 72.9655 15.0338C73.0886 16.3631 73.1501 17.9015 73.1501 19.6492V20.2031H70.0855C69.1993 16.6092 67.4639 14.8123 64.8793 14.8123C63.8947 14.8123 63.1563 15.0954 62.6639 15.6615C62.1716 16.2031 61.9255 16.9292 61.9255 17.84C61.9255 18.5785 62.1224 19.2185 62.5163 19.76C62.9101 20.3015 63.4024 20.7692 63.9932 21.1631C64.6086 21.5323 65.4209 21.9631 66.4301 22.4554C67.9809 23.2185 69.2732 23.9323 70.307 24.5969C71.3655 25.2615 72.2763 26.1477 73.0393 27.2554C73.8024 28.3385 74.1839 29.6308 74.1839 31.1323C74.1839 32.5108 73.8393 33.7662 73.1501 34.8985C72.4609 36.0062 71.4516 36.8923 70.1224 37.5569C68.8178 38.2215 67.2916 38.5538 65.5439 38.5538C63.5501 38.5538 61.5686 38.1354 59.5993 37.2985L56.7563 38.5538C56.2886 37.6185 55.8824 36.1662 55.5378 34.1969C55.1932 32.2031 55.0209 30.4431 55.0209 28.9169H58.7132ZM94.631 29.3969C94.6802 29.4708 95.074 30.0985 95.8125 31.28C96.6987 32.7077 97.4125 33.7292 97.954 34.3446C98.5202 34.9354 99.2094 35.28 100.022 35.3785V36.8554C99.6033 37.4215 99.111 37.84 98.5448 38.1108C97.9787 38.3815 97.2279 38.5169 96.2925 38.5169C95.0125 38.5169 93.954 38.2462 93.1171 37.7046C92.3048 37.1631 91.7017 36.5846 91.3079 35.9692C90.9387 35.3538 90.434 34.4062 89.794 33.1262C88.9079 31.3538 88.071 29.8523 87.2833 28.6215C86.5202 27.3908 85.7325 26.6031 84.9202 26.2585V33.7908C84.9202 34.48 85.0802 34.96 85.4002 35.2308C85.7448 35.5015 86.3233 35.6369 87.1356 35.6369C87.1356 36.08 87.0617 36.5108 86.914 36.9292C86.7663 37.3477 86.5694 37.7046 86.3233 38H77.2771C77.031 37.7046 76.834 37.3477 76.6863 36.9292C76.5387 36.5108 76.4648 36.08 76.4648 35.6369C77.2771 35.6369 77.8433 35.5015 78.1633 35.2308C78.5079 34.96 78.6802 34.48 78.6802 33.7908V16.4369C78.6802 15.7477 78.5079 15.2677 78.1633 14.9969C77.8433 14.7015 77.2771 14.5538 76.4648 14.5538C76.4648 14.1354 76.5387 13.7169 76.6863 13.2985C76.834 12.88 77.031 12.5231 77.2771 12.2277H86.3233C86.5694 12.5231 86.7663 12.88 86.914 13.2985C87.0617 13.7169 87.1356 14.1354 87.1356 14.5538C86.3233 14.5538 85.7448 14.7015 85.4002 14.9969C85.0802 15.2677 84.9202 15.7477 84.9202 16.4369V23.7477C85.4863 23.7477 85.9417 23.7723 86.2863 23.8215L91.4925 16.9169C91.8125 16.5231 91.9725 16.08 91.9725 15.5877C91.9725 15.2923 91.7387 15.0462 91.271 14.8492C90.8279 14.6523 90.3479 14.5538 89.831 14.5538C89.831 14.16 89.9048 13.7538 90.0525 13.3354C90.2002 12.9169 90.4094 12.5477 90.6802 12.2277H99.2833C99.5294 12.5477 99.7263 12.9169 99.874 13.3354C100.022 13.7538 100.096 14.16 100.096 14.5538C98.5448 14.5538 97.314 15.1446 96.4033 16.3262L89.4248 24.5969C90.5571 25.1138 91.5048 25.7415 92.2679 26.48C93.0556 27.2185 93.8433 28.1908 94.631 29.3969ZM101.943 38C101.697 37.7046 101.5 37.3477 101.352 36.9292C101.205 36.5108 101.131 36.08 101.131 35.6369C101.943 35.6369 102.509 35.5015 102.829 35.2308C103.174 34.96 103.346 34.48 103.346 33.7908V16.4369C103.346 15.7477 103.174 15.2677 102.829 14.9969C102.509 14.7015 101.943 14.5538 101.131 14.5538C101.131 14.1354 101.205 13.7169 101.352 13.2985C101.5 12.88 101.697 12.5231 101.943 12.2277H110.915C111.162 12.5231 111.359 12.88 111.506 13.2985C111.654 13.7169 111.728 14.1354 111.728 14.5538C110.915 14.5538 110.337 14.7015 109.992 14.9969C109.672 15.2677 109.512 15.7477 109.512 16.4369V33.7908C109.512 34.48 109.672 34.96 109.992 35.2308C110.337 35.5015 110.915 35.6369 111.728 35.6369C111.728 36.08 111.654 36.5108 111.506 36.9292C111.359 37.3477 111.162 37.7046 110.915 38H101.943ZM120.542 33.7908C120.542 35.0462 121.441 35.6738 123.238 35.6738C123.238 36.5354 122.955 37.3108 122.388 38H114.708C114.167 37.3354 113.896 36.56 113.896 35.6738C114.758 35.6738 115.398 35.5262 115.816 35.2308C116.235 34.9354 116.444 34.4554 116.444 33.7908V16.4369C116.444 15.1815 115.545 14.5538 113.748 14.5538C113.748 14.1354 113.822 13.7169 113.97 13.2985C114.118 12.88 114.315 12.5231 114.561 12.2277H119.693C120.407 12.2277 121.121 12.5108 121.835 13.0769C122.548 13.6185 123.225 14.3815 123.865 15.3662L132.247 28.6215V16.4369C132.247 15.7723 132.025 15.2923 131.582 14.9969C131.139 14.7015 130.487 14.5538 129.625 14.5538C129.625 14.1108 129.699 13.6923 129.847 13.2985C129.995 12.88 130.204 12.5231 130.475 12.2277H138.339C138.61 12.5231 138.819 12.88 138.967 13.2985C139.115 13.7169 139.188 14.1354 139.188 14.5538C138.352 14.5538 137.712 14.7015 137.268 14.9969C136.85 15.2923 136.641 15.7723 136.641 16.4369V38.2215H135.164C133.958 38.2215 133.072 38.0738 132.505 37.7785C131.939 37.4585 131.398 36.9169 130.881 36.1538L120.542 20.4615V33.7908Z" fill="black"/>
<circle cx="46.154" cy="24.6154" r="4.61538" fill="black"/>
</svg>
