<svg width="48" height="48" viewBox="0 0 48 48" fill="none" xmlns="http://www.w3.org/2000/svg">
<rect width="48" height="48" rx="8" fill="#EA4335"/>
<path d="M21.3687 9C20.9205 9 20.5571 9.37113 20.5571 9.82895V19.7763C20.5571 20.2341 20.9205 20.6053 21.3687 20.6053H21.5717C21.9078 20.6053 22.1804 20.8836 22.1804 21.227V39.6711C22.1804 40.1289 22.5437 40.5 22.992 40.5H28.0644C28.5127 40.5 28.876 40.1289 28.876 39.6711V21.227C28.876 20.8836 29.1486 20.6053 29.4847 20.6053H29.8905C30.3387 20.6053 30.7021 20.2341 30.7021 19.7763V9.82895C30.7021 9.37113 30.3387 9 29.8905 9H21.3687Z" fill="white"/>
<path d="M22.1804 28.6875C22.1804 28.2297 22.5438 27.8586 22.992 27.8586H23.3978C23.8461 27.8586 24.2094 28.2297 24.2094 28.6875V36.7697C24.2094 37.2276 23.8461 37.5987 23.3978 37.5987H22.992C22.5438 37.5987 22.1804 37.2276 22.1804 36.7697V28.6875Z" fill="white"/>
<path opacity="0.7" d="M13.9419 12.1281C13.9419 11.9348 14.0736 11.7673 14.2577 11.7222C16.2815 11.227 17.4731 10.6928 18.9482 9.54818C19.2216 9.33604 19.6231 9.52991 19.6231 9.88059V19.7318C19.6231 20.0812 19.2246 20.2743 18.954 20.0603C17.4169 18.8445 16.2612 18.2243 14.2671 17.7743C14.0787 17.7318 13.9419 17.5623 13.9419 17.3652V12.1281Z" fill="white"/>
</svg>
