<svg width="24" height="24" viewBox="0 0 24 24" fill="none" xmlns="http://www.w3.org/2000/svg">
<path fill-rule="evenodd" clip-rule="evenodd" d="M23 12C23 18.0751 18.0751 23 12 23C5.92487 23 1 18.0751 1 12C1 5.92487 5.92487 1 12 1C18.0751 1 23 5.92487 23 12ZM14.0948 14.4111C14.2441 14.3613 14.3613 14.2441 14.4111 14.0948L16.3478 8.28469C16.4781 7.89382 16.1062 7.52195 15.7153 7.65224L9.90518 9.58895C9.75588 9.63872 9.63872 9.75588 9.58895 9.90518L7.65224 15.7153C7.52195 16.1062 7.89381 16.4781 8.28469 16.3478L14.0948 14.4111Z" fill="black"/>
</svg>
