<svg width="48" height="48" viewBox="0 0 48 48" fill="none" xmlns="http://www.w3.org/2000/svg">
<rect width="48" height="48" rx="8" fill="#64544C"/>
<path fill-rule="evenodd" clip-rule="evenodd" d="M19.5896 9.23156C19.1097 8.95905 18.4971 9.2138 18.3641 9.74113L16.6595 16.5019C16.5911 16.7731 16.6693 17.0596 16.8667 17.2612L20.1208 20.5842C20.2322 20.698 20.2944 20.8495 20.2944 21.0072V39.4489C20.2944 39.899 20.667 40.2638 21.1266 40.2638H26.3276C26.7872 40.2638 27.1598 39.899 27.1598 39.4489V21.2198C27.1598 21.0621 27.222 20.9106 27.3334 20.7968L30.7954 17.2612C30.9928 17.0596 31.0711 16.7731 31.0027 16.5019L29.2981 9.74115C29.1651 9.21381 28.5525 8.95905 28.0726 9.23157L24.2486 11.4035C23.9904 11.5501 23.6718 11.5501 23.4136 11.4035L19.5896 9.23156ZM23.826 18.0864C25.2047 18.0864 26.3225 16.9919 26.3225 15.6417C26.3225 14.2916 25.2047 13.1971 23.826 13.1971C22.4472 13.1971 21.3294 14.2916 21.3294 15.6417C21.3294 16.9919 22.4472 18.0864 23.826 18.0864Z" fill="white"/>
<g opacity="0.7">
<path d="M17.2656 8.13719C16.9349 8.05831 16.6016 8.25685 16.521 8.58064L14.7247 15.8016C14.6441 16.1254 14.8469 16.4518 15.1775 16.5307C15.5082 16.6096 15.8415 16.411 15.9221 16.0872L17.7184 8.86627C17.799 8.54248 17.5962 8.21606 17.2656 8.13719Z" fill="white"/>
<path d="M30.4417 8.13721C30.7724 8.05833 31.1057 8.25687 31.1863 8.58066L32.9826 15.8016C33.0631 16.1254 32.8604 16.4518 32.5297 16.5307C32.1991 16.6096 31.8657 16.4111 31.7852 16.0873L29.9889 8.86629C29.9083 8.5425 30.1111 8.21608 30.4417 8.13721Z" fill="white"/>
<path d="M23.826 17.2715C24.7451 17.2715 25.4903 16.5419 25.4903 15.6417C25.4903 14.7416 24.7451 14.012 23.826 14.012C22.9068 14.012 22.1616 14.7416 22.1616 15.6417C22.1616 16.5419 22.9068 17.2715 23.826 17.2715Z" fill="white"/>
</g>
</svg>
