<svg width="116" height="29" viewBox="0 0 116 29" fill="none" xmlns="http://www.w3.org/2000/svg">
<rect width="116" height="29" rx="14.5" fill="#E9E6DA"/>
<path d="M25.9998 8.33334H17.9998C17.2635 8.33334 16.6665 8.9303 16.6665 9.66668V20.3333C16.6665 21.0697 17.2635 21.6667 17.9998 21.6667H25.9998C26.7362 21.6667 27.3332 21.0697 27.3332 20.3333V9.66668C27.3332 8.9303 26.7362 8.33334 25.9998 8.33334Z" stroke="#5A5A5A" stroke-width="1.33333" stroke-linecap="round" stroke-linejoin="round"/>
<path d="M22.0002 19C23.4729 19 24.6668 17.8061 24.6668 16.3333C24.6668 14.8606 23.4729 13.6667 22.0002 13.6667C20.5274 13.6667 19.3335 14.8606 19.3335 16.3333C19.3335 17.8061 20.5274 19 22.0002 19Z" stroke="#5A5A5A" stroke-width="1.33333" stroke-linecap="round" stroke-linejoin="round"/>
<path d="M22 11H22.0067" stroke="#5A5A5A" stroke-width="1.33333" stroke-linecap="round" stroke-linejoin="round"/>
<path d="M42.034 17.232C42.034 16.322 41.586 15.902 39.78 15.258C37.582 14.474 36.868 13.788 36.868 12.374C36.868 10.904 37.974 9.952 40.06 9.952C41.082 9.952 41.922 10.218 42.706 10.666L42.286 11.534C41.6 11.1 40.844 10.862 40.06 10.862C38.618 10.862 37.946 11.422 37.946 12.304C37.946 13.242 38.478 13.648 40.214 14.32C42.37 15.146 43.112 15.636 43.112 17.148C43.112 18.674 42.006 19.64 39.71 19.64C38.534 19.64 37.414 19.332 36.672 18.884L37.064 18.044C37.862 18.478 38.73 18.744 39.668 18.744C41.236 18.744 42.034 18.17 42.034 17.232ZM45.9776 15.048V19.5H44.8996V10.092H45.9776V14.138H46.7476L50.4436 10.092H51.7596L47.6436 14.572L51.4936 19.5H50.1636L46.7476 15.048H45.9776ZM52.1524 10.092H59.0124V11.002H56.1144V19.5H55.0364V11.002H52.1524V10.092ZM70.4314 10.092H71.5374V19.5H70.2774L66.9594 14.124L65.4194 11.576H65.3914L65.4614 14.124V19.5H64.3694V10.092H65.6154L69.1854 15.888L70.4734 18.016H70.5014L70.4314 15.888V10.092ZM79.709 16.21V10.092H80.787V15.986C80.787 18.52 79.681 19.64 77.287 19.64C74.879 19.64 73.787 18.52 73.787 15.986V10.092H74.865V16.21C74.865 17.946 75.663 18.73 77.287 18.73C78.911 18.73 79.709 17.946 79.709 16.21ZM86.9231 18.73C87.6651 18.73 88.3791 18.632 89.0091 18.422V15.594H86.6011V14.684H90.0731V19.038C89.2331 19.36 88.0151 19.64 86.8951 19.64C83.7871 19.64 82.5971 17.96 82.5971 14.796C82.5971 11.478 83.9831 9.952 86.6711 9.952C88.1691 9.952 89.2751 10.442 90.0031 11.226L89.3591 11.954C88.6731 11.226 87.8471 10.876 86.6711 10.876C84.6691 10.876 83.6751 12.094 83.6751 14.796C83.6751 17.484 84.6131 18.73 86.9231 18.73ZM98.166 16.21V10.092H99.244V15.986C99.244 18.52 98.138 19.64 95.744 19.64C93.336 19.64 92.244 18.52 92.244 15.986V10.092H93.322V16.21C93.322 17.946 94.12 18.73 95.744 18.73C97.368 18.73 98.166 17.946 98.166 16.21Z" fill="#5A5A5A"/>
</svg>
